<svg id="Filled_stroke_cut_Ex" height="512" viewBox="0 0 512 512" width="512" xmlns="http://www.w3.org/2000/svg" data-name="Filled stroke cut Ex"><g><path d="m415.762 488h-47.762l-16-16 .238-432 15.762 2.841 120 21.159z" fill="#fdbf44"/><path d="m415.762 496h-23.762v-16h17.01l58.837-345.344 15.773 2.688-59.972 352a8 8 0 0 1 -7.886 6.656z"/><path d="m486.345 121.344-15.772-2.688 8.205-48.156-88.167-15.549 2.778-15.757 96 16.928a8 8 0 0 1 6.5 9.222z"/><g><path d="m24 24h344v464h-344z" fill="#25b1fa"/><rect fill="#fcfeff" height="80" rx="20" width="80" x="64" y="256"/><rect fill="#fcfeff" height="80" rx="20" width="80" x="64" y="376"/><path d="m368 496h-344a8 8 0 0 1 -8-8v-120h16v112h328v-448h-328v320h-16v-328a8 8 0 0 1 8-8h344a8 8 0 0 1 8 8v464a8 8 0 0 1 -8 8z"/><g><g><path d="m112 320a8 8 0 0 1 -5.657-2.343l-24-24 11.314-11.314 17.891 17.891 42.378-49.441 12.148 10.414-48 56a8 8 0 0 1 -5.767 2.787c-.102.006-.207.006-.307.006z"/><path d="m124 344h-40a28.032 28.032 0 0 1 -28-28v-40a28.032 28.032 0 0 1 28-28h36v16h-36a12.013 12.013 0 0 0 -12 12v40a12.013 12.013 0 0 0 12 12h40a12.013 12.013 0 0 0 12-12v-4h16v4a28.032 28.032 0 0 1 -28 28z"/></g><g><path d="m112 440a8 8 0 0 1 -5.657-2.343l-24-24 11.314-11.314 17.891 17.891 42.378-49.441 12.148 10.414-48 56a8 8 0 0 1 -5.767 2.787c-.102.006-.207.006-.307.006z"/><path d="m124 464h-40a28.032 28.032 0 0 1 -28-28v-40a28.032 28.032 0 0 1 28-28h36v16h-36a12.013 12.013 0 0 0 -12 12v40a12.013 12.013 0 0 0 12 12h40a12.013 12.013 0 0 0 12-12v-4h16v4a28.032 28.032 0 0 1 -28 28z"/></g><path d="m184 368h120v16h-120z"/><path d="m184 408h40v16h-40z"/></g><path d="m240 408h64v16h-64z"/><path d="m184 248h120v16h-120z"/><path d="m184 288h40v16h-40z"/><path d="m240 288h64v16h-64z"/><path d="m182.524 203.218a122.975 122.975 0 0 1 -48.531-77.107l-5.993-38.05 71.9-32.061 71.9 32.061-6.055 38.364a122.937 122.937 0 0 1 -49.164 77.559l-16.616 12.079z" fill="#fcfeff"/><path d="m199.965 224.063a7.984 7.984 0 0 1 -4.744-1.558l-17.441-12.845a130.946 130.946 0 0 1 -51.657-82.117c-.012-.062-.022-.125-.032-.187l-5.991-38.051a8 8 0 0 1 4.644-8.551l71.9-32.061a8 8 0 0 1 6.516 0l71.9 32.061a8 8 0 0 1 4.645 8.554l-6.056 38.364c-.009.062-.02.124-.031.186a130.907 130.907 0 0 1 -52.331 82.6l-16.616 12.079a7.986 7.986 0 0 1 -4.706 1.526zm-58.084-99.291a115.012 115.012 0 0 0 45.388 72l12.731 9.378 11.881-8.637a114.976 114.976 0 0 0 45.981-72.43l5.084-32.213-63.046-28.111-63.044 28.112z"/><path d="m191.81 160.061a7.975 7.975 0 0 1 -5.657-2.344l-24-24 11.313-11.317 18.344 18.343 42.343-42.343 11.313 11.313-48 48a7.975 7.975 0 0 1 -5.656 2.348z"/><path d="m56 48h48v16h-48z"/><path d="m56 80h32v16h-32z"/><path d="m296 48h16v16h-16z"/><path d="m328 48h16v16h-16z"/></g></g></svg>