<svg id="Capa_1" enable-background="new 0 0 512 512" height="512" viewBox="0 0 512 512" width="512" xmlns="http://www.w3.org/2000/svg"><g><g><path d="m358.4 68.267-3.938 51.2-15.129 42.668 8.565 42.666-5.352 69.576c-.684 8.892-8.098 15.758-17.016 15.758v10.851h-121.992v-10.851c-8.918 0-16.332-6.866-17.016-15.758l-5.352-69.576 14.393-42.667-20.958-42.665-3.938-51.201 93.866-17.068z" fill="#e9efff"/><path d="m264.533 51.2-11.847 2.154 82.02 14.913-15.855 206.109c-.684 8.892-8.098 15.758-17.016 15.758v10.851h23.694v-10.851c8.918 0 16.332-6.866 17.016-15.758l15.855-206.109z" fill="#d3dcfb"/><g><path d="m358.4 34.133-16.32-26.112c-3.119-4.99-8.588-8.021-14.472-8.021h-126.149c-5.884 0-11.354 3.031-14.473 8.021l-16.32 26.112 93.867 17.067z" fill="#e9efff"/><path d="m342.08 8.021c-3.119-4.99-8.588-8.021-14.472-8.021h-23.694c5.884 0 11.354 3.031 14.473 8.021l16.32 26.112-82.02 14.913 11.847 2.154 93.866-17.067z" fill="#d3dcfb"/><path d="m367.225 34.133c4.552 0 8.241 3.69 8.241 8.242v17.65c0 4.552-3.69 8.241-8.241 8.241h-205.384c-4.552 0-8.241-3.69-8.241-8.241v-17.65c0-4.552 3.69-8.242 8.241-8.242z" fill="#9bd8f9"/><path d="m367.225 34.133h-23.694c4.552 0 8.241 3.69 8.241 8.242v17.65c0 4.552-3.69 8.241-8.241 8.241h23.694c4.552 0 8.241-3.69 8.241-8.241v-17.65c.001-4.552-3.689-8.242-8.241-8.242z" fill="#73c3f9"/></g><path d="m181.169 204.8h166.728l6.565-85.333h-179.857z" fill="#4ce088"/><path d="m184.516 248.304 1.186 15.423h157.663l1.186-15.423c-.196-.015-.392-.03-.592-.03h-158.851c-.2 0-.396.015-.592.03z" fill="#bec8f7"/><path d="m347.897 204.8 6.565-85.333h-23.695l-6.564 85.333z" fill="#30c16b"/></g><g><path d="m57.69 312.145h351.91v58.377h-351.91z" fill="#e9efff"/><path d="m385.906 312.145h23.694v58.377h-23.694z" fill="#d3dcfb"/><path d="m102.4 403.831h315.733v-11.298c4.713 0 8.533-3.82 8.533-8.533v-17.067c0-4.713-3.82-8.533-8.533-8.533h-315.733l-14.577 19.419z" fill="#4fabf7"/><path d="m136.533 318.326v65.657c0 7.602 9.192 11.41 14.567 6.034l13.532-13.532c3.332-3.332 8.735-3.332 12.068 0l13.532 13.532c5.376 5.376 14.567 1.568 14.567-6.034v-65.657z" fill="#ff4155"/><path d="m418.133 358.4h-23.694c4.713 0 8.533 3.82 8.533 8.533v17.067c0 4.713-3.82 8.533-8.533 8.533h23.694c4.713 0 8.533-3.82 8.533-8.533v-17.067c.001-4.712-3.82-8.533-8.533-8.533z" fill="#1886ea"/><path d="m181.169 318.326v62.627l9.063 9.064c5.376 5.376 14.567 1.568 14.567-6.034v-65.657z" fill="#e80054"/><path d="m102.4 324.267h315.733c4.713 0 8.533-3.82 8.533-8.533v-17.067c0-4.713-3.82-8.533-8.533-8.533h-315.733l-14.577 17.066z" fill="#4fabf7"/><path d="m102.4 403.831v-45.431h-25.6c-4.713 0-8.533-3.82-8.533-8.533v-17.067c0-4.713 3.82-8.533 8.533-8.533h25.6v-34.133h-51.2c-9.426 0-17.067 7.641-17.067 17.067v68.267c0 9.426 7.641 17.067 17.067 17.067v11.298h51.2z" fill="#ffdd40"/><path d="m418.133 290.133h-23.694c4.713 0 8.533 3.82 8.533 8.533v17.067c0 4.713-3.82 8.533-8.533 8.533h23.694c4.713 0 8.533-3.82 8.533-8.533v-17.067c.001-4.712-3.82-8.533-8.533-8.533z" fill="#1886ea"/></g><g><path d="m17.067 414.751v11.916c14.138 0 25.6 11.462 25.6 25.6s-11.462 25.6-25.6 25.6v11.916h466.088v-75.032z" fill="#e9efff"/><path d="m426.667 392.533h24.693c32.78 0 60.134 26.031 60.633 58.807.508 33.36-26.481 60.66-59.726 60.66h-25.6l-8.928-17.067 8.928-17.067h25.018c14.321 0 26.42-11.719 26.178-26.039-.235-13.914-11.627-25.161-25.596-25.161h-25.6l-7.898-17.067z" fill="#ffdd40"/><path d="m451.36 392.533h-23.686c32.78 0 60.134 26.031 60.633 58.807.508 33.36-26.481 60.66-59.726 60.66h23.686c33.245 0 60.235-27.3 59.726-60.66-.499-32.776-27.853-58.807-60.633-58.807z" fill="#ffb332"/><g><g><g><path d="m426.667 477.867h-418.133c-4.714 0-8.534 3.82-8.534 8.533v17.067c0 4.713 3.82 8.533 8.533 8.533h418.133v-34.133z" fill="#4ce088"/></g><g><path d="m0 418.133c0 4.713 3.82 8.533 8.533 8.533h418.133v-34.133h-418.133c-4.713 0-8.533 3.82-8.533 8.533z" fill="#4ce088"/></g></g></g><g fill="#30c16b"><path d="m384.807 392.533v34.134h15.453v-34.134z"/><path d="m400.26 477.867h-15.453v34.133h15.453z"/></g></g></g></svg>